#N canvas 576 155 1081 520 10;
#X obj 193 236 noise~;
#X obj 208 300 bp~ 4000 10;
#X obj 193 327 *~;
#X obj 208 354 lop~ 500;
#X obj 193 381 *~;
#X obj 158 487 *~;
#X obj 158 290 *~;
#X obj 158 317 +~;
#X obj 193 408 lop~ 500;
#X obj 193 487 *~ 0.5;
#X obj 243 504 +~;
#X obj 158 531 +~;
#X obj 297 499 hip~;
#X obj 282 526 +~;
#X obj 282 580 *~;
#X obj 158 553 *~;
#X obj 158 575 clip~ -1 1;
#X obj 158 597 +~;
#X obj 204 544 r~ drp-gan;
#X obj 321 439 r hip;
#X obj 282 327 r drp-amt;
#X obj 272 374 r drp-sze;
#X obj 297 553 r~ wnd;
#X obj 173 263 r~ crk;
#X obj 239 273 r sze;
#X obj 301 283 r int;
#X obj 413 236 noise~;
#X obj 500 351 bp~ 4000 10;
#X obj 413 327 *~;
#X obj 428 354 lop~ 500;
#X obj 413 381 *~;
#X obj 378 487 *~;
#X obj 378 290 *~;
#X obj 378 317 +~;
#X obj 413 408 lop~ 500;
#X obj 413 487 *~ 0.5;
#X obj 378 531 +~;
#X obj 589 550 hip~;
#X obj 574 577 +~;
#X obj 574 631 *~;
#X obj 378 553 *~;
#X obj 378 575 clip~ -1 1;
#X obj 378 597 +~;
#X obj 442 536 r~ drp-gan;
#X obj 611 499 r hip;
#X obj 545 383 r drp-amt;
#X obj 530 437 r drp-sze;
#X obj 589 604 r~ wnd;
#X obj 393 263 r~ crk;
#X obj 459 273 r sze;
#X obj 593 334 r int;
#X obj 702 342 / 127;
#X msg 702 386 \$1 20;
#X obj 702 408 line~;
#X obj 702 430 s~ crk;
#X obj 867 342 / 127;
#X floatatom 702 364 0 0 1 0 - - - 0;
#X msg 867 386 2 \$1;
#X obj 867 408 pow;
#X obj 867 364 * 14;
#X floatatom 867 430 0 0 0 1 Hz - - 0;
#X obj 867 452 s hip;
#X obj 702 619 / 127;
#X msg 702 704 \$1 20;
#X obj 702 726 line~;
#X floatatom 705 668 0 0 1 0 - - - 0;
#X obj 702 748 s~ wnd;
#X obj 867 646 / 127;
#X msg 867 690 \$1 20;
#X obj 867 712 line~;
#X floatatom 872 668 0 0 1 0 - - - 0;
#X obj 867 748 s~ drp-gan;
#X obj 158 679 clip~ -1 1;
#X obj 370 679 clip~ -1 1;
#X obj 1023 342 / 127;
#X obj 1055 645 / 127;
#X msg 1055 689 2 \$1;
#X obj 1055 711 pow;
#X obj 1240 660 / 127;
#X msg 1240 704 2 \$1;
#X obj 1240 726 pow;
#X obj 1217 479 s int, f 6;
#X obj 1055 736 * 250;
#X obj 1240 748 * 250;
#X floatatom 1058 764 0 0 0 1 - - - 0;
#X obj 1055 667 * 6;
#X obj 1055 790 s drp-sze;
#X obj 1240 682 * 6;
#X floatatom 1240 770 0 0 0 1 - - - 0;
#X obj 1240 792 s sze;
#X msg 1023 386 2 \$1;
#X obj 1023 408 pow;
#X obj 1023 430 * 250;
#X obj 1023 364 * 6;
#X floatatom 1023 452 0 0 0 1 - - - 0;
#X obj 1023 474 s drp-amt;
#X obj 158 619 hip~ 3;
#X obj 378 619 hip~ 3;
#X obj 158 641 *~ 0.7;
#X obj 378 641 *~ 0.7;
#X obj 702 646 pow 4;
#X obj 297 795 dac~;
#X obj 765 624 ctlin 14;
#X obj 1100 614 ctlin 16;
#X obj 1273 614 ctlin 17;
#X obj 1295 283 ctlin 13, f 8;
#X obj 923 312 ctlin 12;
#X obj 1102 317 ctlin 11;
#X obj 930 608 ctlin 15;
#X obj 766 300 ctlin 10;
#X obj 520 761 ctlin 7;
#X text 717 807 source: https://youtu.be/ZXwk8sDts0Y;
#X text 765 829 By Taavi Viikman;
#X obj 741 226 hsl 128 17 0 127 0 0 empty empty CRACKLES -2 -8 0 10 #fcfcfc #000000 #000000 0 1;
#X obj 882 226 hsl 128 17 0 127 0 0 empty empty HIPASS -2 -8 0 10 #fcfcfc #000000 #000000 0 1;
#X obj 1031 226 hsl 128 17 0 127 0 0 empty empty DROP-AMOUNT -2 -8 0 10 #fcfcfc #000000 #000000 0 1;
#X obj 716 528 hsl 128 17 0 127 0 0 empty empty WINDINESS -2 -8 0 10 #fcfcfc #000000 #000000 0 1;
#X obj 862 528 hsl 128 17 0 127 0 0 empty empty DROP-GAIN -2 -8 0 10 #fcfcfc #000000 #000000 0 1;
#X obj 1012 528 hsl 128 17 0 127 0 0 empty empty DROP-SIZE -2 -8 0 10 #fcfcfc #000000 #000000 0 1;
#X obj 1174 528 hsl 128 17 0 127 0 0 empty empty SIZE -2 -8 0 10 #fcfcfc #000000 #000000 0 1;
#X obj 1222 226 hsl 128 17 0 127 0 0 empty empty INTENSITY -2 -8 0 10 #fcfcfc #000000 #000000 0 1;
#X msg 1219 388 2 \$1;
#X obj 1219 410 pow;
#X obj 1219 432 * 0.7;
#X floatatom 1219 454 0 0 0 0 - - - 0;
#X obj 1219 366 * 5;
#X msg 1219 322 1 \$1;
#X obj 1219 344 -;
#X obj 370 733 *~ 0.7;
#X obj 210 733 *~ 0.7;
#X connect 0 0 1 0;
#X connect 0 0 2 0;
#X connect 0 0 6 0;
#X connect 1 0 2 1;
#X connect 1 0 7 1;
#X connect 1 0 12 0;
#X connect 2 0 3 0;
#X connect 2 0 4 0;
#X connect 3 0 4 1;
#X connect 4 0 8 0;
#X connect 5 0 11 0;
#X connect 6 0 7 0;
#X connect 7 0 5 0;
#X connect 8 0 9 0;
#X connect 8 0 13 0;
#X connect 9 0 10 0;
#X connect 10 0 11 1;
#X connect 10 0 36 1;
#X connect 11 0 15 0;
#X connect 12 0 13 1;
#X connect 13 0 14 0;
#X connect 14 0 17 1;
#X connect 15 0 16 0;
#X connect 16 0 17 0;
#X connect 17 0 96 0;
#X connect 18 0 15 1;
#X connect 19 0 12 1;
#X connect 20 0 3 1;
#X connect 21 0 8 1;
#X connect 22 0 14 1;
#X connect 23 0 6 1;
#X connect 24 0 1 1;
#X connect 25 0 1 2;
#X connect 26 0 27 0;
#X connect 26 0 28 0;
#X connect 26 0 32 0;
#X connect 27 0 28 1;
#X connect 27 0 33 1;
#X connect 27 0 37 0;
#X connect 28 0 29 0;
#X connect 28 0 30 0;
#X connect 29 0 30 1;
#X connect 30 0 34 0;
#X connect 31 0 36 0;
#X connect 32 0 33 0;
#X connect 33 0 31 0;
#X connect 34 0 35 0;
#X connect 34 0 38 0;
#X connect 35 0 10 1;
#X connect 36 0 40 0;
#X connect 37 0 38 1;
#X connect 38 0 39 0;
#X connect 39 0 42 1;
#X connect 40 0 41 0;
#X connect 41 0 42 0;
#X connect 42 0 97 0;
#X connect 43 0 40 1;
#X connect 44 0 37 1;
#X connect 45 0 29 1;
#X connect 46 0 34 1;
#X connect 47 0 39 1;
#X connect 48 0 32 1;
#X connect 49 0 27 1;
#X connect 50 0 27 2;
#X connect 51 0 56 0;
#X connect 52 0 53 0;
#X connect 53 0 54 0;
#X connect 55 0 59 0;
#X connect 56 0 52 0;
#X connect 57 0 58 0;
#X connect 58 0 60 0;
#X connect 59 0 57 0;
#X connect 60 0 61 0;
#X connect 62 0 100 0;
#X connect 63 0 64 0;
#X connect 64 0 66 0;
#X connect 65 0 63 0;
#X connect 67 0 70 0;
#X connect 68 0 69 0;
#X connect 69 0 71 0;
#X connect 70 0 68 0;
#X connect 72 0 129 0;
#X connect 73 0 128 0;
#X connect 74 0 93 0;
#X connect 74 0 93 1;
#X connect 75 0 85 0;
#X connect 76 0 77 0;
#X connect 77 0 82 0;
#X connect 78 0 87 0;
#X connect 79 0 80 0;
#X connect 80 0 83 0;
#X connect 82 0 84 0;
#X connect 83 0 88 0;
#X connect 84 0 86 0;
#X connect 85 0 76 0;
#X connect 87 0 79 0;
#X connect 88 0 89 0;
#X connect 90 0 91 0;
#X connect 91 0 92 0;
#X connect 92 0 94 0;
#X connect 93 0 90 0;
#X connect 94 0 95 0;
#X connect 96 0 98 0;
#X connect 97 0 99 0;
#X connect 98 0 72 0;
#X connect 99 0 73 0;
#X connect 100 0 65 0;
#X connect 102 0 62 0;
#X connect 103 0 75 0;
#X connect 104 0 78 0;
#X connect 105 0 126 0;
#X connect 106 0 55 0;
#X connect 107 0 74 0;
#X connect 108 0 67 0;
#X connect 109 0 51 0;
#X connect 110 0 128 1;
#X connect 110 0 129 1;
#X connect 113 0 51 0;
#X connect 114 0 55 0;
#X connect 115 0 74 0;
#X connect 116 0 62 0;
#X connect 117 0 67 0;
#X connect 118 0 75 0;
#X connect 119 0 78 0;
#X connect 120 0 126 0;
#X connect 121 0 122 0;
#X connect 122 0 123 0;
#X connect 123 0 124 0;
#X connect 124 0 81 0;
#X connect 125 0 121 0;
#X connect 126 0 127 0;
#X connect 127 0 125 0;
#X connect 128 0 101 1;
#X connect 129 0 101 0;
